<svg width="1504" height="649" viewBox="0 0 1504 649" fill="none" xmlns="http://www.w3.org/2000/svg">
<path d="M15.2916 167.351C16.7996 122.907 15.0775 63.6929 6.62259 19.6796C6.37255 18.378 7.42678 17.1982 8.7484 17.2986C76.4769 22.4448 144.095 27.147 212.019 29.1769C270.045 30.911 329.803 33.2658 387.695 29.9543C469.027 25.302 549.943 19.4473 631.386 22.8207C700.512 25.6838 769.99 34.2015 839.087 28.491C929.546 21.0151 1020.08 13.7148 1110.66 7.60861C1197.74 1.73839 1285.84 15.4977 1373.12 16.1396C1406.52 16.3853 1443.73 4.74361 1475.53 18.5379C1495.84 27.3446 1499.1 59.3428 1497.59 79.1229C1494.5 119.746 1495.65 163.903 1480.84 202.367C1454.82 269.965 1439.73 337.378 1441.57 410.782C1442.42 444.326 1451.67 474.915 1462.1 506.593C1469.47 529.007 1477 542.92 1475.16 567.148C1473.95 582.977 1475.97 604.149 1469.43 618.745C1465.61 627.253 1460.47 642.837 1449.46 642.423C1414.33 641.103 1377.92 632.786 1344.24 623.284C1260.29 599.602 1169.57 610.644 1083.88 612.949C961.988 616.229 840.061 601.911 718.57 592.66C644.912 587.052 577.21 612.89 504.661 616.952C469.818 618.903 435.282 613.496 400.498 613.929C369.588 614.314 339.158 617.525 308.593 621.821C231.421 632.668 146.523 622.965 73.7097 594.937C61.1074 590.086 50.3644 584.746 41.7099 574.665C35.3128 567.213 37.1753 549.811 34.651 540.584C28.0693 516.524 28.1756 488.447 27.9093 463.657C27.5563 430.793 28.9559 397.294 26.2934 364.54C23.7097 332.757 15.2161 301.763 13.0436 269.937C10.7218 235.925 14.1374 201.369 15.2916 167.351Z" fill="white" stroke="black" stroke-width="12" stroke-linecap="round"/>
</svg>
